HIERARCHY
ROOT Hips
{
    OFFSET   0.000000   0.000000   0.000000
    CHANNELS 6 Xposition Yposition Zposition Zrotation Xrotation Yrotation
    JOINT Chest
    {
        OFFSET   0.000000   8.007230   0.000000
        CHANNELS 3 Zrotation Xrotation Yrotation
        JOINT Chest2
        {
            OFFSET   0.000000  22.077100   0.000000
            CHANNELS 3 Zrotation Xrotation Yrotation
            JOINT Neck
            {
                OFFSET   0.000000  23.255100   0.000000
                CHANNELS 3 Zrotation Xrotation Yrotation
                JOINT Head
                {
                    OFFSET   0.000000  14.370100   1.956600
                    CHANNELS 3 Zrotation Xrotation Yrotation
                    End Site
                    {
                        OFFSET   0.000000  19.566000   0.000000
                    }
                }
            }
            JOINT LeftCollar
            {
                OFFSET   3.911900  19.017000  -0.467063
                CHANNELS 3 Zrotation Xrotation Yrotation
                JOINT LeftShoulder
                {
                    OFFSET  10.383700   0.000000   0.000000
                    CHANNELS 3 Zrotation Xrotation Yrotation
                    JOINT LeftElbow
                    {
                        OFFSET  26.662100   0.001193   0.000980
                        CHANNELS 3 Zrotation Xrotation Yrotation
                        JOINT LeftWrist
                        {
                            OFFSET  28.869000  -0.000059  -0.000082
                            CHANNELS 3 Zrotation Xrotation Yrotation
                            JOINT LeftFinger0
                            {
                                OFFSET   2.044650  -2.323450   3.252850
                                CHANNELS 3 Zrotation Xrotation Yrotation
                                JOINT LeftFinger01
                                {
                                    OFFSET   3.088130   0.000000   0.000000
                                    CHANNELS 3 Zrotation Xrotation Yrotation
                                    JOINT LeftFinger02
                                    {
                                        OFFSET   2.639460   0.000000   0.000000
                                        CHANNELS 3 Zrotation Xrotation Yrotation
                                        End Site
                                        {
                                            OFFSET   2.582190   0.000000   0.000000
                                        }
                                    }
                                }
                            }
                            JOINT LeftFinger1
                            {
                                OFFSET   8.364480   0.000000   3.252850
                                CHANNELS 3 Zrotation Xrotation Yrotation
                                JOINT LeftFinger11
                                {
                                    OFFSET   4.646930   0.000000   0.000000
                                    CHANNELS 3 Zrotation Xrotation Yrotation
                                    JOINT LeftFinger12
                                    {
                                        OFFSET   2.323470   0.000000   0.000000
                                        CHANNELS 3 Zrotation Xrotation Yrotation
                                        End Site
                                        {
                                            OFFSET   2.273050   0.000000   0.000000
                                        }
                                    }
                                }
                            }
                            JOINT LeftFinger2
                            {
                                OFFSET   8.364490   0.000016   1.078090
                                CHANNELS 3 Zrotation Xrotation Yrotation
                                JOINT LeftFinger21
                                {
                                    OFFSET   5.111610   0.000000   0.000000
                                    CHANNELS 3 Zrotation Xrotation Yrotation
                                    JOINT LeftFinger22
                                    {
                                        OFFSET   2.788150   0.000016   0.000000
                                        CHANNELS 3 Zrotation Xrotation Yrotation
                                        End Site
                                        {
                                            OFFSET   2.727660   0.000000   0.000000
                                        }
                                    }
                                }
                            }
                            JOINT LeftFinger3
                            {
                                OFFSET   7.899780   0.000015  -1.078090
                                CHANNELS 3 Zrotation Xrotation Yrotation
                                JOINT LeftFinger31
                                {
                                    OFFSET   4.646930   0.000000   0.000000
                                    CHANNELS 3 Zrotation Xrotation Yrotation
                                    JOINT LeftFinger32
                                    {
                                        OFFSET   2.323470   0.000000   0.000000
                                        CHANNELS 3 Zrotation Xrotation Yrotation
                                        End Site
                                        {
                                            OFFSET   2.273050   0.000000   0.000000
                                        }
                                    }
                                }
                            }
                            JOINT LeftFinger4
                            {
                                OFFSET   7.435090   0.000000  -3.252850
                                CHANNELS 3 Zrotation Xrotation Yrotation
                                JOINT LeftFinger41
                                {
                                    OFFSET   3.717550   0.000000   0.000000
                                    CHANNELS 3 Zrotation Xrotation Yrotation
                                    JOINT LeftFinger42
                                    {
                                        OFFSET   1.858770   0.000000   0.000000
                                        CHANNELS 3 Zrotation Xrotation Yrotation
                                        End Site
                                        {
                                            OFFSET   1.818440   0.000000   0.000000
                                        }
                                    }
                                }
                            }
                        }
                    }
                }
            }
            JOINT RightCollar
            {
                OFFSET  -3.911910  19.017000  -0.467062
                CHANNELS 3 Zrotation Xrotation Yrotation
                JOINT RightShoulder
                {
                    OFFSET -10.383700   0.000014   0.000000
                    CHANNELS 3 Zrotation Xrotation Yrotation
                    JOINT RightElbow
                    {
                        OFFSET -26.662100   0.001225   0.001091
                        CHANNELS 3 Zrotation Xrotation Yrotation
                        JOINT RightWrist
                        {
                            OFFSET -28.869000  -0.000020  -0.000085
                            CHANNELS 3 Zrotation Xrotation Yrotation
                            JOINT RightFinger0
                            {
                                OFFSET  -2.044650  -2.323490   3.252850
                                CHANNELS 3 Zrotation Xrotation Yrotation
                                JOINT RightFinger01
                                {
                                    OFFSET  -3.088130   0.000000   0.000000
                                    CHANNELS 3 Zrotation Xrotation Yrotation
                                    JOINT RightFinger02
                                    {
                                        OFFSET  -2.639460   0.000000   0.000000
                                        CHANNELS 3 Zrotation Xrotation Yrotation
                                        End Site
                                        {
                                            OFFSET  -2.582190   0.000000   0.000000
                                        }
                                    }
                                }
                            }
                            JOINT RightFinger1
                            {
                                OFFSET  -8.364480   0.000000   3.252850
                                CHANNELS 3 Zrotation Xrotation Yrotation
                                JOINT RightFinger11
                                {
                                    OFFSET  -4.646930   0.000000   0.000000
                                    CHANNELS 3 Zrotation Xrotation Yrotation
                                    JOINT RightFinger12
                                    {
                                        OFFSET  -2.323470   0.000000   0.000000
                                        CHANNELS 3 Zrotation Xrotation Yrotation
                                        End Site
                                        {
                                            OFFSET  -2.273050   0.000000   0.000000
                                        }
                                    }
                                }
                            }
                            JOINT RightFinger2
                            {
                                OFFSET  -8.364480   0.000000   1.078090
                                CHANNELS 3 Zrotation Xrotation Yrotation
                                JOINT RightFinger21
                                {
                                    OFFSET  -5.111620   0.000000   0.000000
                                    CHANNELS 3 Zrotation Xrotation Yrotation
                                    JOINT RightFinger22
                                    {
                                        OFFSET  -2.788160   0.000000   0.000000
                                        CHANNELS 3 Zrotation Xrotation Yrotation
                                        End Site
                                        {
                                            OFFSET  -2.727660   0.000000   0.000000
                                        }
                                    }
                                }
                            }
                            JOINT RightFinger3
                            {
                                OFFSET  -7.899780   0.000000  -1.078090
                                CHANNELS 3 Zrotation Xrotation Yrotation
                                JOINT RightFinger31
                                {
                                    OFFSET  -4.646930   0.000000   0.000000
                                    CHANNELS 3 Zrotation Xrotation Yrotation
                                    JOINT RightFinger32
                                    {
                                        OFFSET  -2.323470   0.000000   0.000000
                                        CHANNELS 3 Zrotation Xrotation Yrotation
                                        End Site
                                        {
                                            OFFSET  -2.273050   0.000000   0.000000
                                        }
                                    }
                                }
                            }
                            JOINT RightFinger4
                            {
                                OFFSET  -7.435090   0.000000  -3.252850
                                CHANNELS 3 Zrotation Xrotation Yrotation
                                JOINT RightFinger41
                                {
                                    OFFSET  -3.717550   0.000000   0.000000
                                    CHANNELS 3 Zrotation Xrotation Yrotation
                                    JOINT RightFinger42
                                    {
                                        OFFSET  -1.858760   0.000000   0.000000
                                        CHANNELS 3 Zrotation Xrotation Yrotation
                                        End Site
                                        {
                                            OFFSET  -1.818440   0.000000   0.000000
                                        }
                                    }
                                }
                            }
                        }
                    }
                }
            }
        }
    }
    JOINT LeftHip
    {
        OFFSET   9.783030   0.000000   0.000000
        CHANNELS 3 Zrotation Xrotation Yrotation
        JOINT LeftKnee
        {
            OFFSET   0.000063 -41.789100   0.000608
            CHANNELS 3 Zrotation Xrotation Yrotation
            JOINT LeftAnkle
            {
                OFFSET   0.000048 -41.133200  -0.000184
                CHANNELS 3 Zrotation Xrotation Yrotation
                JOINT LeftToe
                {
                    OFFSET   0.000000  -6.358960  14.674500
                    CHANNELS 3 Zrotation Xrotation Yrotation
                    End Site
                    {
                        OFFSET   0.000000   0.000000   3.913200
                    }
                }
            }
        }
    }
    JOINT RightHip
    {
        OFFSET  -9.783030   0.000000   0.000000
        CHANNELS 3 Zrotation Xrotation Yrotation
        JOINT RightKnee
        {
            OFFSET   0.000071 -41.789100   0.001239
            CHANNELS 3 Zrotation Xrotation Yrotation
            JOINT RightAnkle
            {
                OFFSET   0.000037 -41.133200  -0.000166
                CHANNELS 3 Zrotation Xrotation Yrotation
                JOINT RightToe
                {
                    OFFSET   0.000000  -6.358960  14.674500
                    CHANNELS 3 Zrotation Xrotation Yrotation
                    End Site
                    {
                        OFFSET   0.000000   0.000000   3.913200
                    }
                }
            }
        }
    }
}
MOTION
Frames: 4
Frame Time:   0.016667
  1.949860  89.468900   2.306970  -3.111930 -10.455000  -7.909890   0.915747   5.569470  -3.093440   2.148870  11.080200  -6.321100  -3.250110  -4.078970  -0.229484  -5.415960  -8.191180 -14.033100   0.230509  -2.815860   0.954943 -36.549600 -16.680100 -86.847500 -17.800400 -36.884300 -58.146800  81.406700 -60.875100  72.039200  40.343100  21.060300 -57.775500 -18.632000  -0.001474  -0.000428  -4.316010   0.000247  -0.003009  -9.278190  -0.535174   3.275690  -7.603650   0.008662  -0.000907  -5.322550   0.000445  -0.009809 -14.396500  -2.456870   9.486900 -14.601700   0.003526  -0.001682  -9.724800   0.003278  -0.004555  -9.560580  -1.642440   9.659530  -9.699230   0.000000  -0.001711  -6.459690   0.007481  -0.010561 -14.294800  -2.931400  11.368500 -21.882200   0.000098  -0.000348 -14.573500   0.000529  -0.009997  -1.935580  -8.765750   8.972660  42.350800 -13.862700  84.723100  -4.836910 -26.534900  46.690000 -90.965800 -48.692700 -56.775400 -44.124500  32.072100  70.215700   9.985150  -0.003589   0.000731  -0.007412  -0.002686   0.001845  -4.918660   0.647636  -7.448060   0.000044   0.000000   0.009534   0.008059  -0.000059   0.001236  -5.163300   0.932672 -10.198200   0.008271   0.000000  -0.000908   0.005505  -0.005112   0.005090  -4.199920   0.764340 -10.212200  -0.000053   0.003616  -0.001569  -0.003223  -0.007079  -0.001074   5.921390  -1.071140 -10.186700   9.024340  -0.008766  -0.002526   6.010220  -0.004044  -0.000476   2.655910  14.191500   2.224710  -0.629126   1.779010  14.397100  -1.235460  -6.015470   4.658830  -0.000000   0.000000  -0.000000   0.347979  11.003300  -2.896190  -1.747160   4.243660  -8.033570   1.766990  -3.254450   4.298660  -0.000000   0.000000   0.000000
  1.953010  89.469200   2.363920  -3.155610 -10.373900  -8.060560   0.922933   5.495020  -3.091100   2.158630  10.931000  -6.314640  -3.226740  -4.137840  -0.229627  -5.377830  -8.310850 -13.905000   0.292000  -2.800630   0.954945 -36.670700 -17.078300 -86.930300 -17.939800 -37.226900 -58.412700  80.699300 -61.324400  71.333000  40.385600  21.248100 -57.976600 -18.668400  -0.001617  -0.000539  -4.334210   0.000230  -0.003011  -9.310860  -0.527119   3.206470  -7.629940   0.008675  -0.000906  -5.340970   0.000440  -0.009817 -14.415100  -2.440680   9.404230 -14.615700   0.003800  -0.001675  -9.734090   0.003246  -0.004571  -9.421950  -1.605820   9.580630  -9.556430   0.000000  -0.001708  -6.364570   0.007468  -0.010550 -14.311100  -2.901270  11.221800 -21.894000   0.000062  -0.000359 -14.581400   0.000514  -0.010037  -1.936980  -8.800740   8.987290  42.357000 -14.114800  84.945600  -4.942620 -26.654800  46.811200 -90.418600 -49.587000 -56.537100 -44.855900  32.512900  70.411300   9.595830  -0.003555   0.000662  -0.202074  -0.002680   0.001831  -5.155060   0.657546  -7.272990   0.000087   0.000000   0.009634   0.008062  -0.000119   0.001299  -6.012400   1.068550 -10.059600   0.008309   0.000000  -0.000897   0.005529  -0.005076   0.005134  -5.016230   0.891949 -10.076900  -0.000137   0.003591  -0.001518  -0.003234  -0.007168  -0.001044   5.401710  -0.962536 -10.070200   8.228210  -0.008842  -0.002426   5.480000  -0.004090  -0.000487   2.669320  14.153800   2.249480  -0.644179   1.801130  14.433700  -1.220290  -6.074880   4.751090   0.000000   0.000000   0.000000   0.343836  10.944200  -2.872300  -1.710890   4.191860  -8.028560   1.751470  -3.218990   4.410900  -0.000000   0.000000   0.000000
  1.960360  89.469500   2.420270  -3.199950 -10.289900  -8.210410   0.931323   5.419910  -3.070380   2.169200  10.780900  -6.271570  -3.192060  -4.184910  -0.229638  -5.321660  -8.406870 -13.760900   0.316310  -2.798920   0.845272 -36.776600 -17.471900 -86.982600 -17.934500 -37.437900 -58.600100  79.938600 -61.713000  70.570300  40.442900  21.469900 -58.100700 -18.769700  -0.001771  -0.000596  -4.384840   0.000209  -0.003011  -9.368730  -0.533887   3.228570  -7.677520   0.008695  -0.000905  -5.374270   0.000431  -0.009816 -14.442000  -2.448650   9.419140 -14.643700   0.004063  -0.001650  -9.752710   0.003214  -0.004578  -9.473670  -1.617830   9.595220  -9.609320  -0.000028  -0.001695  -6.399800   0.007478  -0.010537 -14.333100  -2.901840  11.174600 -21.930600   0.000023  -0.000399 -14.605800   0.000510  -0.010080  -1.928670  -8.809810   8.949220  42.417400 -14.365800  85.207300  -5.008300 -26.732900  47.001000 -90.040900 -50.124800 -56.325800 -44.620900  32.477700  70.607900   9.454410  -0.003530   0.000633  -0.272789  -0.002676   0.001819  -5.498590   0.682455  -7.113710   0.000044  -0.000050   0.009719   0.008086  -0.000116   0.001358  -6.386230   1.111480  -9.884440   0.008342   0.000000  -0.000875   0.005553  -0.005036   0.005188  -5.301890   0.918239  -9.903560  -0.000205   0.003562  -0.001461  -0.003246  -0.007255  -0.001011   5.147360  -0.898417  -9.905830   7.837010  -0.008918  -0.002320   5.219450  -0.004138  -0.000496   2.686440  14.128900   2.268400  -0.664683   1.800090  14.487500  -1.206780  -6.131580   4.833140  -0.000000   0.000000  -0.000000   0.333413  11.037400  -2.893420  -1.665950   3.988440  -7.978520   1.737970  -3.185060   4.519100   0.000000   0.000000   0.000000
  1.968250  89.469700   2.476730  -3.244010 -10.202600  -8.357800   0.939124   5.345240  -3.032070   2.176480  10.632100  -6.192470  -3.147470  -4.221720  -0.229632  -5.248540  -8.482810 -13.553000   0.336909  -2.798780   0.673303 -36.920000 -17.846600 -87.006500 -17.894100 -37.613900 -58.801800  79.109400 -62.078600  69.744400  40.490900  21.681300 -58.183600 -18.902600  -0.001931  -0.000643  -4.451300   0.000187  -0.003012  -9.439560  -0.548729   3.285590  -7.736040   0.008714  -0.000905  -5.415230   0.000419  -0.009814 -14.476200  -2.468640   9.465630 -14.680400   0.004326  -0.001625  -9.777130   0.003184  -0.004584  -9.560250  -1.641350   9.641910  -9.698510  -0.000073  -0.001685  -6.459200   0.007499  -0.010526 -14.384100  -2.902600  11.166400 -22.001900   0.000000  -0.000440 -14.653200   0.000500  -0.010125  -1.929540  -8.818820   8.852780  42.494000 -14.586600  85.472300  -5.070890 -26.822800  47.225300 -89.698500 -50.541800 -56.114400 -44.266800  32.406600  70.740200   9.412660  -0.003510   0.000624  -0.293667  -0.002675   0.001806  -5.726780   0.700477  -6.973710   0.000000  -0.000126   0.009804   0.008118  -0.000114   0.001420  -6.516360   1.118800  -9.723660   0.008372   0.000000  -0.000849   0.005577  -0.004996   0.005242  -5.366370   0.922374  -9.743100  -0.000242   0.003531  -0.001404  -0.003258  -0.007342  -0.000978   5.048530  -0.868963  -9.746120   7.683270  -0.008993  -0.002213   5.117060  -0.004187  -0.000505   2.706990  14.111900   2.277290  -0.690208   1.795380  14.547400  -1.193800  -6.182880   4.913350  -0.000000   0.000000  -0.000000   0.323308  11.130500  -2.922390  -1.621810   3.796180  -7.903430   1.725230  -3.151500   4.621600  -0.000000   0.000000   0.000000
